<?xml version="1.0" encoding="utf-8"?>
<!-- Generator: Adobe Illustrator 24.3.0, SVG Export Plug-In . SVG Version: 6.00 Build 0)  -->
<svg version="1.1" id="Layer_1" xmlns="http://www.w3.org/2000/svg" xmlns:xlink="http://www.w3.org/1999/xlink" x="0px" y="0px"
	 viewBox="0 0 710.9 2021.5" style="enable-background:new 0 0 710.9 2021.5;" xml:space="preserve">
<style type="text/css">
	.st0{fill:#6A5277;}
	.st1{fill:#8A7593;}
	.st2{fill:#CB9369;}
	.st3{fill:#D38747;}
	.st4{fill:#617A61;}
	.st5{fill:#7FA4A2;}
	.st6{fill:#5B7C68;}
	.st7{fill:#A3C1C0;}
	.st8{fill:#8BAF9A;}
	.st9{fill:#527F6E;}
	.st10{fill:#46664B;}
	.st11{display:none;}
	
		.st12{display:inline;opacity:0.47;fill:#969696;stroke:#000000;stroke-width:0.8132;stroke-miterlimit:10;enable-background:new    ;}
	.st13{display:inline;stroke:#FFFFFF;stroke-width:0.8132;stroke-miterlimit:10;}
	.st14{display:inline;stroke:#FFFFFF;stroke-width:1.2481;stroke-miterlimit:10;}
	.st15{display:inline;fill:#969696;stroke:#000000;stroke-width:0.8132;stroke-miterlimit:10;}
	.st16{display:inline;stroke:#FFFFFF;stroke-width:1.2598;stroke-miterlimit:10;}
	.st17{display:inline;fill:#FFFFFF;stroke:#000000;stroke-width:1.2481;stroke-miterlimit:10;}
	.st18{display:inline;}
	.st19{font-family:'ArialMT';}
	.st20{font-size:29.1686px;}
	.st21{display:inline;fill:#FFFFFF;}
	.st22{font-size:40.0441px;}
	.st23{font-size:81.2942px;}
	.st24{font-size:41.6244px;}
	.st25{display:inline;fill:#6A5277;}
	.st26{display:inline;fill:#8A7593;}
	.st27{display:inline;fill:#CB9369;}
	.st28{display:inline;fill:#D38747;}
	.st29{display:inline;fill:#7FA4A2;}
	.st30{display:inline;fill:#A3C1C0;}
	.st31{display:inline;fill:#5B7C68;}
	.st32{display:inline;fill:#8BAF9A;}
	.st33{display:inline;fill:none;}
	.st34{font-family:'AdellePELt';}
	.st35{font-size:26.0438px;}
	.st36{font-size:13.6537px;}
</style>
<g id="Layer_4">
	<rect x="0.8" y="381.8" class="st0" width="709.6" height="360.3"/>
	<path class="st1" d="M43.2,542.2c28.3,8.8,58.9-9.9,87.2-14.3c67.1-10.6,133.9,3.7,200.4,13.4c33.4,4.9,67.1,8.7,100.8,7.5
		c36.1-1.3,70.9-11.5,106.4-18.5c33.2-6.6,65.3-8.9,98.8-4.4c25.2,3.4,50.2,7.9,75.4,10.5V335.7H0.5v195.1
		C14.6,530.8,29,537.7,43.2,542.2z"/>
	<path class="st2" d="M43.4,366.1c28.3,3.5,58.8-3.9,87.1-5.6c67-4.2,133.7,1.5,200.2,5.3c33.4,1.9,67,3.4,100.7,2.9
		c36-0.5,70.8-4.5,106.3-7.3c33.2-2.6,65.2-3.5,98.7-1.7c25.2,1.3,50.2,3.1,75.4,4.1v-78.8H0.7v76.6
		C14.7,361.7,29.2,364.4,43.4,366.1z"/>
	<path class="st3" d="M42.4,318.6c28.3,13.6,58.9-15.2,87.2-22c67.1-16.3,133.9,5.7,200.5,20.7c33.5,7.5,67.1,13.4,100.8,11.5
		c36.1-2.1,70.9-17.6,106.4-28.5c33.2-10.2,65.3-13.7,98.8-6.8c25.2,5.2,50.3,12.1,75.5,16.2V1h-712v300.1
		C13.7,301.1,28.2,311.8,42.4,318.6z"/>
	<polygon class="st4" points="4.5,683 180.2,663 337.5,666.7 516.9,647.6 670.6,639.4 710.9,628.5 710.9,749.3 15.5,749.3 	"/>
	<polygon class="st5" points="4.5,762.5 180.2,742.5 337.6,746.2 516.9,727.1 670.6,718.9 710.9,708 710.9,828.8 15.5,828.8 	"/>
	<polygon class="st6" points="-0.3,651 220.4,710 430.4,745.9 537.1,783.4 706.4,894.8 353.4,894.8 0.4,894.8 -0.5,709 	"/>
	<polygon class="st7" points="0.4,842.4 177,798.9 335.1,806.8 515.3,765.4 669.7,747.6 710.2,723.9 710.2,986.5 11.5,986.5 	"/>
	<polygon class="st8" points="-0.1,717.8 144.4,782.4 281.9,821.7 351.8,862.8 713,1051.6 236.7,1021.8 0.3,984.8 -0.3,781.3 	"/>
	<polygon class="st9" points="-0.9,1125.3 0.1,964 315.2,982 531.3,1031.7 671.1,923.9 711.7,873.5 711.7,1431.7 0.1,1433.7 	"/>
	<polygon class="st10" points="713.2,1420 535.9,1238.5 377.1,1271.5 196.2,1098.3 41.2,1024.1 0.5,925.1 0.5,2022.1 714.2,2023.1 	
		"/>
</g>
<g id="Layer_1_1_" class="st11">
	<rect x="-16.6" y="96.9" class="st12" width="646.3" height="415.2"/>
	<rect x="14.7" y="847" class="st13" width="177.5" height="177.5"/>
	<rect x="218.6" y="847" class="st13" width="177.5" height="177.5"/>
	<rect x="417.5" y="847" class="st13" width="177.5" height="177.5"/>
	<rect x="46.9" y="468.4" class="st14" width="518.3" height="301.8"/>
	<rect x="24.7" y="1280.7" class="st15" width="563.9" height="583"/>
	<rect x="14.7" y="1045.8" class="st13" width="177.5" height="177.5"/>
	<rect x="219.3" y="1044.3" class="st13" width="177.5" height="177.5"/>
	<rect x="418.1" y="1042.9" class="st13" width="177.5" height="177.5"/>
	<rect x="28.4" y="1923.1" class="st16" width="560.2" height="72.6"/>
	<rect x="310.8" y="1941.4" class="st17" width="67.4" height="36.3"/>
	<rect x="403.8" y="1942.6" class="st17" width="67.4" height="36.3"/>
	<rect x="493.3" y="1942.6" class="st17" width="67.4" height="36.3"/>
	<rect x="91.8" y="1942.4" class="st17" width="164.3" height="35.9"/>
	<text transform="matrix(1 0 0 1 232.7164 1910.2211)" class="st18 st19 st20">Social Media</text>
</g>
<g id="Layer_2_1_" class="st11">
	<text transform="matrix(1 0 0 1 117.1408 649.7664)" class="st21 st19 st22">introduction/Summary</text>
	<text transform="matrix(1 0 0 1 214.8213 81.4187)" class="st21 st19 st22">Header/Nav</text>
	<text transform="matrix(1 0 0 1 205.3725 307.9171)" class="st18 st19 st23">Image</text>
	<text transform="matrix(1 0 0 1 236.8 1593.9971)" class="st18 st19 st24">Resume</text>
</g>
<g id="Layer_3" class="st11">
	<rect x="-0.7" y="0.1" class="st25" width="611.3" height="115.3"/>
	<path class="st26" d="M36,32.5c24.3,0.9,50.5-1,74.8-1.4c57.6-1.1,114.9,0.4,172,1.3c28.7,0.5,57.6,0.9,86.5,0.7
		c31-0.1,60.9-1.1,91.3-1.9c28.5-0.7,56-0.9,84.8-0.4c21.6,0.3,43.1,0.8,64.8,1v-20h-611v19.4C11.4,31.3,23.8,32,36,32.5z"/>
	<path class="st27" d="M36.9,20.6c24.3,0.9,50.5-1,74.7-1.4c57.5-1.1,114.7,0.4,171.8,1.3c28.7,0.5,57.5,0.9,86.4,0.7
		c30.9-0.1,60.8-1.1,91.2-1.9c28.5-0.7,56-0.9,84.7-0.4c21.6,0.3,43.1,0.8,64.7,1v-20H0.2v19.4C12.3,19.5,24.7,20.2,36.9,20.6z"/>
	<path class="st28" d="M36.1,14.1c24.3,0.6,50.5-0.7,74.8-1c57.6-0.7,114.9,0.2,172,0.9c28.7,0.3,57.6,0.6,86.5,0.5
		c31-0.1,60.9-0.8,91.3-1.3c28.5-0.4,56-0.6,84.8-0.3c21.6,0.2,43.1,0.5,64.8,0.7V0.1H-0.6v13.3C11.5,13.3,23.9,13.8,36.1,14.1z"/>
	<polygon class="st29" points="310.8,87.1 385.3,78.7 452.1,80.2 528.2,72.3 593.4,68.9 610.5,64.4 610.5,114.6 315.4,114.6 	"/>
	<polygon class="st30" points="305.7,91.4 381.5,84.1 449.4,85.4 526.8,78.6 593.1,75.6 610.5,71.7 610.5,115.3 310.4,115.3 	"/>
	<polygon class="st31" points="-1,53.9 124.6,68.5 244.2,77.3 304.9,86.6 401.3,114.2 200.3,114.2 -0.6,114.2 -1.1,68.2 	"/>
	<polygon class="st32" points="-1.5,68.8 124.1,80 243.6,86.8 304.3,93.9 400.7,115 199.8,115 -1.2,115 -1.6,79.8 	"/>
	<rect x="60.5" y="30.9" class="st33" width="256" height="55.7"/>
	<text transform="matrix(1 0 0 1 60.4571 50.5845)" class="st21 st34 st35">Maximilian Glick</text>
	<rect x="-0.7" y="111.1" class="st18" width="612" height="48.2"/>
	<text transform="matrix(1 0 0 1 235.4023 140.3564)" class="st21 st34 st36">Photography Work</text>
	<text transform="matrix(1 0 0 1 121.4394 140.3564)" class="st21 st34 st36">Graphic Work</text>
	<text transform="matrix(1 0 0 1 459.7529 140.3574)" class="st21 st34 st36">About Me</text>
	<text transform="matrix(1 0 0 1 379.3867 140.3564)" class="st21 st34 st36">Resume</text>
</g>
</svg>
