<?xml version="1.0" encoding="utf-8"?>
<!-- Generator: Adobe Illustrator 24.3.0, SVG Export Plug-In . SVG Version: 6.00 Build 0)  -->
<svg version="1.1" id="Layer_1" xmlns="http://www.w3.org/2000/svg" xmlns:xlink="http://www.w3.org/1999/xlink" x="0px" y="0px"
	 viewBox="0 0 147.1 91.2" style="enable-background:new 0 0 147.1 91.2;" xml:space="preserve">
<style type="text/css">
	.st0{fill:#8A7593;}
	.st1{fill:#D38747;}
	.st2{fill:#DDAF66;}
	.st3{fill:#D39C72;}
	.st4{fill:#95899B;}
	.st5{fill:#A3C1C0;}
	.st6{fill:#6B7F73;}
	.st7{fill:#8BAF9A;}
	.st8{fill:#8F9B92;}
	.st9{fill:#76917F;}
</style>
<rect x="0" class="st0" width="146.7" height="91.2"/>
<path class="st1" d="M9,77.3c5.8,1.2,12.1-1.2,17.9-1.8c13.9-1.4,27.5,0.5,41.3,1.6c6.9,0.7,13.9,1.2,20.8,0.9
	c7.4-0.2,14.6-1.4,21.9-2.3c6.8-0.9,13.4-1.2,20.4-0.5c5.2,0.5,10.3,0.9,15.5,1.4V52H0.1v24C3.1,76,6,76.6,9,77.3z"/>
<path class="st2" d="M9,76.3c5.8,0.5,12.1-0.5,17.9-0.8c13.9-0.6,27.5,0.2,41.3,0.7c6.9,0.3,13.9,0.5,20.8,0.4
	c7.4-0.1,14.6-0.6,21.9-1c6.8-0.4,13.4-0.5,20.4-0.2c5.2,0.2,10.3,0.4,15.5,0.6V65.6l-91.3,1l-55.3-1v10.2C3.1,75.8,6,76,9,76.3z"/>
<path class="st3" d="M9.1,59.4c5.8,1.2,12.1-1.2,17.9-1.8c13.9-1.4,27.5,0.5,41.3,1.6c6.9,0.7,13.9,1.2,20.8,0.9
	c7.4-0.2,14.6-1.4,21.9-2.3c6.8-0.9,13.4-1.2,20.4-0.5c5.2,0.5,10.3,0.9,15.5,1.4V34H0.3v24C3.2,58,6.2,58.7,9.1,59.4z"/>
<path class="st4" d="M146.9,25.5l-0.8-12.8L0,25.2l0,14.9c3,0,5.9,0.7,8.9,1.4c5.8,1.2,12.2-1.2,18-1.8c13.9-1.4,27.6,0.5,41.4,1.6
	c7,0.7,13.9,1.2,20.9,0.9c7.5-0.2,14.6-1.4,22-2.3c6.9-0.9,13.4-6.4,20.4-5.8c5,0.4,10.3-0.5,15.4-0.1V25.5z"/>
<polygon class="st5" points="0,71.1 0,0 34.7,0 31.6,4.1 29.2,19.8 23.7,38.2 24.8,54.3 19,72.3 "/>
<polygon class="st6" points="0,53.9 0,-0.1 25.4,-0.1 23.1,3 21.4,15 17.4,28.9 18.1,41.2 13.9,54.9 "/>
<polygon class="st7" points="54.5,91.2 40.3,60.6 21.5,51 10.3,34.7 0,25.2 0,43.7 0,91.1 33.6,91.2 "/>
<polygon class="st5" points="146.9,51.6 135.9,38.8 93.7,57.1 61.6,77.2 113.2,77.2 146.9,76.9 "/>
<polygon class="st8" points="146.9,55.7 134.5,49 83.2,63.3 58.2,80.1 113,80.8 146.9,80.5 "/>
<path class="st9" d="M137.9,75.1c-5.8-0.7-12.1,0.8-17.9,1.1c-13.9,0.8-27.6-0.3-41.3-1c-6.9-0.4-13.9-0.7-20.8-0.6
	c-7.4,0.1-14.6,0.9-21.9,1.4c-6.8,0.5-13.4,0.7-20.4,0.3C10.5,76,5.3,75.7,0.1,75.5v15.6h146.6V76C143.8,76,140.9,75.5,137.9,75.1z"
	/>
</svg>
