<?xml version="1.0" encoding="utf-8"?>
<!-- Generator: Adobe Illustrator 24.3.0, SVG Export Plug-In . SVG Version: 6.00 Build 0)  -->
<svg version="1.1" id="Layer_1" xmlns="http://www.w3.org/2000/svg" xmlns:xlink="http://www.w3.org/1999/xlink" x="0px" y="0px"
	 viewBox="0 0 144.2 89.8" style="enable-background:new 0 0 144.2 89.8;" xml:space="preserve">
<style type="text/css">
	.st0{fill:#6A5277;}
	.st1{fill:#8A7593;}
	.st2{fill:#CB9369;}
	.st3{fill:#D38747;}
	.st4{fill:#7FA4A2;}
	.st5{fill:#A3C1C0;}
	.st6{fill:#5B7C68;}
	.st7{fill:#8BAF9A;}
	.st8{fill:none;}
	.st9{opacity:0.61;fill:#5E6D63;}
	.st10{font-family:'Avenir-Medium';}
	.st11{font-size:70px;}
	.st12{fill:#D0F4DD;}
</style>
<rect x="-0.1" y="0.5" class="st0" width="144" height="90"/>
<path class="st1" d="M8.6,25.8c5.7,0.7,11.9-0.8,17.6-1.1c13.6-0.8,27,0.3,40.5,1c6.8,0.4,13.6,0.7,20.4,0.6
	c7.3-0.1,14.3-0.9,21.5-1.4c6.7-0.5,13.2-0.7,20-0.3c5.1,0.3,10.1,0.6,15.2,0.8V9.7H-0.1v15.2C2.8,24.9,5.7,25.4,8.6,25.8z"/>
<path class="st2" d="M8.8,16.5c5.7,0.7,11.9-0.8,17.6-1.1c13.6-0.8,27,0.3,40.5,1c6.8,0.4,13.6,0.7,20.4,0.6
	c7.3-0.1,14.3-0.9,21.5-1.4c6.7-0.5,13.2-0.7,20-0.3c5.1,0.3,10.1,0.6,15.2,0.8V0.5H0.1v15.2C3,15.6,5.9,16.2,8.8,16.5z"/>
<path class="st3" d="M8.9,11c5.7,0.5,11.9-0.5,17.6-0.8c13.6-0.6,27,0.2,40.5,0.7c6.8,0.3,13.6,0.5,20.4,0.4
	c7.3-0.1,14.3-0.6,21.5-1c6.7-0.4,13.2-0.5,20-0.2c5.1,0.2,10.1,0.4,15.2,0.6V0H0.2v10.4C3.1,10.4,6,10.7,8.9,11z"/>
<polygon class="st4" points="71.9,68.3 89.9,61.8 106,63 124.3,56.8 140.1,54.1 144.2,50.6 144.2,89.8 73,89.8 "/>
<polygon class="st5" points="71.5,71.1 89.4,65.5 105.6,66.5 123.9,61.1 139.6,58.8 143.8,55.8 143.8,89.8 72.6,89.8 "/>
<polygon class="st6" points="-0.1,42.5 29.5,53.9 57.6,60.8 72,68.1 94.7,89.6 47.3,89.6 -0.1,89.6 -0.2,53.7 "/>
<polygon class="st7" points="0,53.8 29.6,62.5 57.8,67.8 72.1,73.4 94.9,89.8 47.5,89.8 0.1,89.8 0,62.4 "/>
<rect x="39.5" y="18.4" class="st8" width="64.9" height="68.9"/>
<text transform="matrix(1 0 0 1 43.0405 71.4152)" class="st9 st10 st11">M</text>
<text transform="matrix(1 0 0 1 41.7055 70.6153)" class="st12 st10 st11">M</text>
</svg>
