<?xml version="1.0" encoding="utf-8"?>
<!-- Generator: Adobe Illustrator 24.3.0, SVG Export Plug-In . SVG Version: 6.00 Build 0)  -->
<svg version="1.1" id="Layer_1" xmlns="http://www.w3.org/2000/svg" xmlns:xlink="http://www.w3.org/1999/xlink" x="0px" y="0px"
	 viewBox="0 0 20 20.1" style="enable-background:new 0 0 20 20.1;" xml:space="preserve">
<style type="text/css">
	.st0{fill:none;}
	.st1{fill-rule:evenodd;clip-rule:evenodd;fill:#1D1D1D;}
</style>
<desc>Created with Sketch.</desc>
<g id="Icons">
	<g id="Rounded" transform="translate(-782.000000, -1220.000000)">
		<g id="Communication" transform="translate(100.000000, 1162.000000)">
			<g id="_x2D_Round-_x2F_-Communication-_x2F_-email" transform="translate(680.000000, 54.000000)">
				<g transform="translate(0.000000, 0.000000)">
					<polygon id="Path" class="st0" points="0,2.2 24,2.2 24,26.2 0,26.2 					"/>
					<path id="_xD83D__xDD39_Icon-Color" class="st1" d="M20,6.2H4c-1.1,0-2,0.9-2,2l0,12c0,1.1,0.9,2,2,2h16c1.1,0,2-0.9,2-2v-12
						C22,7.1,21.1,6.2,20,6.2z M19.6,10.5l-7.1,4.4c-0.3,0.2-0.7,0.2-1.1,0l-7.1-4.4C4.2,10.3,4,10,4,9.7C4,9.1,4.7,8.7,5.3,9
						l6.7,4.2L18.7,9C19.3,8.7,20,9.1,20,9.7C20,10,19.9,10.3,19.6,10.5z"/>
				</g>
			</g>
		</g>
	</g>
</g>
</svg>
