<?xml version="1.0" encoding="utf-8"?>
<!-- Generator: Adobe Illustrator 24.3.0, SVG Export Plug-In . SVG Version: 6.00 Build 0)  -->
<svg version="1.1" xmlns="http://www.w3.org/2000/svg" xmlns:xlink="http://www.w3.org/1999/xlink" x="0px" y="0px"
	 viewBox="0 0 72 72" style="enable-background:new 0 0 72 72;" xml:space="preserve">
<style type="text/css">
	.st0{fill-rule:evenodd;clip-rule:evenodd;}
</style>
<g id="Layer_1">
	<g id="Page-1">
		<g id="Social-Icons---Rounded-Black" transform="translate(-376.000000, -267.000000)">
			<g id="Linkedin" transform="translate(376.000000, 267.000000)">
				<path class="st0" d="M62,62H51.3V43.8c0-5-1.9-7.8-5.8-7.8c-4.3,0-6.5,2.9-6.5,7.8V62H28.6V27.3h10.3V32c0,0,3.1-5.7,10.5-5.7
					c7.4,0,12.6,4.5,12.6,13.8V62z M16.3,22.8c-3.5,0-6.3-2.9-6.3-6.4s2.8-6.4,6.3-6.4s6.3,2.9,6.3,6.4S19.9,22.8,16.3,22.8z M11,62
					h10.7V27.3H11V62z"/>
			</g>
		</g>
	</g>
</g>
<g id="Layer_2">
	<desc>Created with Sketch.</desc>
</g>
</svg>
